<svg width="645" height="337" viewBox="0 0 645 187" fill="none" xmlns="http://www.w3.org/2000/svg">
<path opacity="0.15" fill-rule="evenodd" clip-rule="evenodd" d="M397.866 96.9783C374.848 75.6172 314.618 19.7219 376.428 2.8969C438.575 -14.0328 415.964 59.1503 405.676 92.4497L405.676 92.4505C404.563 96.0521 403.595 99.1871 402.893 101.691C401.563 100.409 399.853 98.8223 397.866 96.9783ZM399.221 81.1336C383.542 66.5665 342.772 28.6889 384.708 17.2559C426.89 5.76363 411.583 55.3946 404.594 78.0539L404.594 78.0543L404.593 78.056L404.593 78.0567L404.592 78.0594L404.592 78.0598C403.831 80.5281 403.169 82.6762 402.69 84.39C401.774 83.5054 400.594 82.4088 399.221 81.1336ZM498.621 50.2299C532.968 104.301 450.806 105.038 419.402 105.32H419.402C416.69 105.344 414.357 105.365 412.51 105.417C413.679 103.093 415.075 100.123 416.679 96.7105C431.509 65.169 464.097 -4.14544 498.621 50.2299ZM482.802 55.2537C506.078 91.9308 450.513 92.4819 429.105 92.6942H429.105H429.105H429.105H429.105H429.104C427.216 92.7129 425.594 92.729 424.315 92.767C425.104 91.1948 426.047 89.1878 427.129 86.8829L427.129 86.8828L427.129 86.8823C437.19 65.4587 459.338 18.296 482.802 55.2537ZM395.646 114.126L315.287 82.998C302.195 77.927 287.35 84.478 282.291 97.537L271.098 126.433L375.251 166.778L395.646 114.126ZM489.848 150.617L409.85 119.628L389.455 172.28L493.219 212.474L504.412 183.578C509.471 170.52 502.913 155.677 489.848 150.617ZM442.669 320.196L480.047 223.701L383.955 186.478L337.364 306.757L409.69 334.774C422.754 339.834 437.599 333.283 442.669 320.196ZM250.861 273.249L323.16 301.255L369.751 180.976L273.659 143.753L236.28 240.249C231.211 253.335 237.769 268.178 250.861 273.249ZM302.9 50.1125C323.855 67.9758 360.802 89.286 392.503 100.702C366.451 82.047 338.62 54.6187 323.544 34.9432C323.18 36.8313 322.819 38.7125 322.458 40.5937C322.097 42.475 321.736 44.3562 321.373 46.2443C315.215 47.5337 309.057 48.8231 302.9 50.1125ZM420.855 111.685C451.975 124.602 493.636 133.742 521.157 134.657C517.514 129.612 513.873 124.567 510.231 119.522L510.11 119.354C511.113 117.714 512.113 116.08 513.114 114.447C514.114 112.813 515.115 111.18 516.118 109.539C491.722 113.925 452.676 115.448 420.855 111.685ZM210.664 122.366L233.901 176.465C237.052 183.802 233.628 192.376 226.304 195.522L185.755 212.938L156.791 145.505L210.664 122.366ZM177.792 216.359L137.259 233.769C129.919 236.922 121.343 233.502 118.192 226.165L94.9549 172.066L148.828 148.926L177.792 216.359ZM132.73 111.447L87.6773 130.799C80.3374 133.951 76.9136 142.525 80.0583 149.847L87.0166 166.047L145.409 140.966L132.73 111.447ZM185.543 88.763L140.693 108.027L153.372 137.545L211.546 112.558L204.588 96.358C201.443 89.037 192.867 85.617 185.543 88.763ZM149.132 44.4739C184.621 52.7698 151.528 85.7865 138.878 98.4071L138.878 98.4072L138.874 98.4112L138.869 98.4164L138.868 98.4167C137.78 99.5028 136.843 100.438 136.115 101.192C135.665 99.7831 135.05 98.0211 134.343 95.9969C127.809 77.2756 113.446 36.1245 149.132 44.4739ZM144.703 52.8153C168.768 58.4506 146.408 80.8006 137.792 89.413C137.032 90.1729 136.379 90.8259 135.874 91.351C135.569 90.3977 135.152 89.2066 134.674 87.8388C130.231 75.1259 120.451 47.1404 144.703 52.8153ZM126.803 103.595C108.942 104.08 62.2072 105.351 80.6257 73.899C99.1388 42.2704 119.095 81.0163 128.174 98.6451L128.175 98.6456C129.156 100.552 130.011 102.211 130.723 103.508C129.672 103.517 128.345 103.553 126.803 103.595ZM121.042 96.6159C108.868 96.9398 77.2205 97.7819 89.7085 76.437C102.274 54.9677 115.819 81.2356 122.001 93.2263L122.002 93.2267L122.004 93.2305L122.006 93.235C122.678 94.5383 123.263 95.6725 123.75 96.558C123.025 96.5631 122.108 96.5876 121.042 96.6159ZM69.5474 122.368C85.1771 121.282 108.678 115.228 126.107 107.244C108.091 110.037 85.8578 109.974 71.8963 107.982C72.4948 108.886 73.0918 109.786 73.6887 110.686L73.6967 110.698L73.7093 110.717L73.7302 110.748L73.7571 110.789C74.3422 111.671 74.9273 112.553 75.514 113.439L74.6937 114.666C72.9783 117.233 71.2628 119.8 69.5474 122.368ZM142.002 100.417C159.792 93.273 180.362 80.397 191.911 69.8094L181.327 67.9896C181.113 67.061 180.901 66.1354 180.688 65.2102L180.686 65.1984L180.681 65.1779L180.68 65.1738C180.407 63.9866 180.135 62.8 179.86 61.6084C171.693 73.106 156.432 89.274 142.002 100.417ZM49.8331 217.924L39.5989 235.957C38.2109 238.403 35.0765 239.267 32.6351 237.881L19.1192 230.21L31.8759 207.733L49.8331 217.924ZM16.4648 228.704L2.95406 221.036C0.507464 219.647 -0.357892 216.513 1.03005 214.068L11.2643 196.035L29.2215 206.226L16.4648 228.704ZM36.3115 193.734L21.2944 185.211C18.8478 183.823 15.7134 184.687 14.3284 187.127L11.2638 192.527L30.7274 203.573L36.3115 193.734ZM53.9155 203.725L38.9659 195.24L33.3817 205.08L52.7726 216.085L55.8373 210.685C57.2223 208.245 56.3569 205.11 53.9155 203.725ZM58.5936 184.083C63.8189 195.808 47.5085 193.547 41.2767 192.683C40.7391 192.609 40.2765 192.545 39.9092 192.501C40.2089 192.075 40.5728 191.526 40.9909 190.897C44.8539 185.079 53.3425 172.295 58.5936 184.083ZM55.3108 184.616C58.8517 192.57 47.8147 191.05 43.5677 190.465C43.1943 190.413 42.8735 190.369 42.6196 190.339C42.8221 190.05 43.0678 189.68 43.35 189.255C45.9715 185.303 51.7419 176.603 55.3108 184.616ZM37.2542 190.401C33.3177 185.494 23.0136 172.649 35.7588 171.124C48.5735 169.587 41.9476 183.434 38.9337 189.732L38.9335 189.732C38.6077 190.413 38.3242 191.006 38.112 191.481C37.886 191.188 37.5938 190.824 37.2542 190.401ZM37.9864 187.299C35.3052 183.953 28.3322 175.251 36.9795 174.212C45.6775 173.17 41.1897 182.56 39.141 186.846L39.1397 186.849L39.1386 186.851L39.1355 186.858C38.9145 187.32 38.7222 187.723 38.5783 188.046C38.4227 187.844 38.221 187.592 37.9864 187.299ZM19.8018 178.33C23.4326 182.484 30.1322 187.79 36.0815 190.981C31.4638 186.521 26.7502 180.269 24.3381 175.928C24.2517 176.174 24.1657 176.42 24.0798 176.666L23.9668 176.989L23.962 177.003C23.8338 177.369 23.7056 177.736 23.5767 178.104C22.9475 178.142 22.3184 178.179 21.6892 178.217L20.8202 178.269L19.8018 178.33ZM41.3798 193.988C47.17 197.46 55.1603 200.491 60.5886 201.478L58.847 198.121L59.6665 197.14L60.3252 196.352C55.3612 196.507 47.577 195.665 41.3798 193.988ZM626.321 215.218L643.133 250.428C645.413 255.203 643.372 260.971 638.605 263.247L612.214 275.848L591.258 231.959L626.321 215.218ZM607.031 278.323L580.65 290.919C575.873 293.2 570.104 291.161 567.824 286.386L551.012 251.176L586.075 234.434L607.031 278.323ZM574.428 210.042L545.106 224.042C540.329 226.323 538.288 232.091 540.563 236.856L545.597 247.399L583.602 229.253L574.428 210.042ZM608.802 193.629L579.611 207.567L588.784 226.779L626.647 208.701L621.612 198.157C619.337 193.392 613.569 191.353 608.802 193.629ZM583.525 165.262C607.242 169.82 586.202 192.552 578.158 201.244L578.157 201.245L578.155 201.246L578.154 201.248C577.46 201.997 576.863 202.642 576.4 203.162C576.065 202.242 575.612 201.093 575.092 199.773L575.091 199.772L575.089 199.766L575.089 199.766C570.269 187.54 559.676 160.674 583.525 165.262ZM577.197 195.321L577.197 195.321L577.197 195.321L577.194 195.324L577.191 195.327C576.712 195.846 576.3 196.292 575.981 196.651C575.754 196.03 575.448 195.255 575.097 194.365L575.097 194.363L575.094 194.357L575.094 194.357C571.817 186.056 564.603 167.784 580.812 170.902C596.897 174 582.674 189.393 577.198 195.32L577.198 195.32L577.197 195.321ZM570.295 204.999C558.481 205.79 527.571 207.861 538.938 186.551C550.364 165.119 564.599 190.253 571.075 201.687C571.775 202.923 572.385 203.998 572.89 204.838C572.194 204.871 571.316 204.93 570.295 204.999ZM566.301 200.529C558.25 201.064 537.311 202.456 545.019 187.992C552.774 173.445 562.434 190.482 566.844 198.259L566.845 198.261C567.326 199.108 567.744 199.845 568.09 200.419C567.611 200.442 567.005 200.482 566.301 200.529ZM532.879 218.937C543.2 217.806 558.602 213.179 569.932 207.433C558.076 209.757 543.353 210.301 534.055 209.349C534.452 209.899 534.847 210.446 535.242 210.994C535.693 211.618 536.143 212.241 536.595 212.868C535.975 213.879 535.356 214.891 534.737 215.902C534.118 216.914 533.499 217.925 532.879 218.937ZM580.277 202.493C591.869 197.294 605.151 188.226 612.519 180.911C610.167 180.603 607.815 180.294 605.463 179.985C605.272 179.286 605.083 178.589 604.893 177.892C604.704 177.195 604.514 176.498 604.323 175.798C599.218 183.627 589.539 194.735 580.277 202.493Z" fill="#fff"/>
</svg>
