<svg width="100%" height="100%" viewBox="0 0 280 244" fill="none" xmlns="http://www.w3.org/2000/svg">
<path fill-rule="evenodd" clip-rule="evenodd" d="M215.435 122.349V171.231C215.435 177.854 210.005 183.277 203.372 183.277H166.697V122.349H215.435ZM159.501 183.277H122.826C116.193 183.277 110.763 177.854 110.763 171.231V122.349H159.501V183.277Z" fill="#FEFEFE"/>
<path fill-rule="evenodd" clip-rule="evenodd" d="M118.734 88.476H159.501V115.163H106.67V100.522C106.67 93.8987 112.101 88.476 118.734 88.476ZM166.697 88.476H207.251C213.884 88.476 219.314 93.8987 219.314 100.522V115.163H166.697V88.476Z" fill="#FEFEFE"/>
<path fill-rule="evenodd" clip-rule="evenodd" d="M193.985 42.7701C220.459 62.2726 175.56 77.5143 165.436 81.775C166.639 69.2446 166.813 22.7448 193.985 42.7701ZM187.876 47.6893C205.854 60.9363 175.366 71.2782 168.481 74.1832C169.296 65.6618 169.412 34.0938 187.876 47.6893Z" fill="#FEFEFE"/>
<path fill-rule="evenodd" clip-rule="evenodd" d="M132.019 42.7701C105.526 62.2726 150.425 77.5143 160.568 81.775C159.346 69.2446 159.172 22.7448 132.019 42.7701ZM138.128 47.6893C120.13 60.9363 150.619 71.2782 157.504 74.1832C156.689 65.6618 156.573 34.0938 138.128 47.6893Z" fill="#FEFEFE"/>
<path fill-rule="evenodd" clip-rule="evenodd" d="M107.659 76.1199C119.936 80.4 139.874 83.4793 155.797 83.1113C141.135 79.3348 124.164 72.0141 114.176 65.9135C114.486 67.6953 114.816 69.477 115.146 71.2588C112.644 72.8663 110.142 74.4931 107.659 76.1199Z" fill="#FEFEFE"/>
<path fill-rule="evenodd" clip-rule="evenodd" d="M218.345 76.1199C206.048 80.4 186.111 83.4793 170.188 83.1113C184.869 79.3348 201.82 72.0141 211.828 65.9135C211.498 67.6953 211.168 69.477 210.858 71.2588C213.341 72.8663 215.843 74.4931 218.345 76.1199Z" fill="#FEFEFE"/>
<path fill-rule="evenodd" clip-rule="evenodd" d="M94.0445 22.9384C145.712 -15.3499 218.674 -4.58188 257.037 47.0115C295.38 98.6048 284.577 171.482 232.929 209.771C181.262 248.059 108.28 237.291 69.937 185.698C31.5744 134.104 42.3772 61.2268 94.0445 22.9384ZM105.022 37.7154C148.524 5.48889 209.947 14.5526 242.219 57.9925C274.511 101.413 265.415 162.748 221.933 194.994C178.45 227.22 117.008 218.157 84.735 174.717C52.443 131.296 61.5391 69.9612 105.022 37.7154Z" fill="#FEFEFE"/>
<path d="M79.3787 167.26L53.7142 186.283L64.6729 201.026L90.3374 182.002L79.3787 167.26Z" fill="#FEFEFE"/>
<path d="M33.5915 193.946L46.0281 184.728L64.7269 209.882L52.2904 219.101L33.5915 193.946Z" fill="#FEFEFE"/>
<path d="M16.7975 206.395L29.2341 197.176L47.9329 222.331L35.4964 231.549L16.7975 206.395Z" fill="#FEFEFE"/>
<path d="M0.00363975 218.842L12.4402 209.623L31.139 234.778L18.7025 243.996L0.00363975 218.842Z" fill="#FEFEFE"/>
</svg>
